<svg id="Layer_1" enable-background="new 0 0 66 66" height="512" viewBox="0 0 66 66" width="512" xmlns="http://www.w3.org/2000/svg"><g><g><g><g><path d="m2.54 43.07 5.46 9.4c.35.6.54 1.29.54 1.99v1.24h14.79v-2.51c0-.94-.3-1.86-.85-2.62l-5.68-7.89c-.55-.76-.85-1.68-.85-2.62v-7.62c0-1.27-1.03-2.3-2.3-2.3-.75 0-1.41.27-1.82.75l4.23-12.73c.43-1.3-.14-2.72-1.36-3.35-1.49-.77-3.31-.06-3.89 1.51l-8.57 23.4c-.4 1.11-.3 2.33.3 3.35z" fill="#7cb5e8"/></g><g opacity=".3"><path d="m14.35 52.47-5.46-9.4c-.59-1.02-.7-2.24-.29-3.34l3.31-9.03-.06.19c.41-.48 1.07-.75 1.82-.75 1.27 0 2.3 1.03 2.3 2.3v7.62c0 .94.3 1.86.85 2.62l5.68 7.89c.55.76.85 1.68.85 2.62v2.51h-8.44v-1.24c-.03-.7-.21-1.39-.56-1.99z" fill="#e2e2e2"/></g></g><g><path d="m32.47 7.87c-6.71.27-12.2 5.9-12.32 12.61-.07 3.73 1.46 7.09 3.93 9.48 2.27 2.18 3.57 5.18 3.57 8.32v.65h10.71v-.64c0-3.21 1.42-6.2 3.7-8.46 2.35-2.33 3.8-5.55 3.8-9.11 0-7.28-6.05-13.15-13.39-12.85z" fill="#ffab03"/></g><g><path d="m38.36 38.93h-10.72c-1.18 0-2.14.96-2.14 2.14s.96 2.14 2.14 2.14h10.71c1.18 0 2.14-.96 2.14-2.14.01-1.18-.95-2.14-2.13-2.14z" fill="#e2e2e2"/></g><g><path d="m35.14 43.21h-4.29c-1.18 0-2.14.96-2.14 2.14s.96 2.14 2.14 2.14h4.29c1.18 0 2.14-.96 2.14-2.14.01-1.18-.95-2.14-2.14-2.14z" fill="#4e6575"/></g><g><g><path d="m24.41 55.69h-17.65c-1.33 0-2.42 1.08-2.42 2.42v2.97c0 1.33 1.08 2.42 2.42 2.42h17.65c1.33 0 2.42-1.08 2.42-2.42v-2.97c0-1.33-1.09-2.42-2.42-2.42z" fill="#4e6575"/></g><g opacity=".3"><path d="m24.41 55.69h-14.46v2.69c0 1.33 1.08 2.42 2.42 2.42h14.46v-2.69c0-1.33-1.09-2.42-2.42-2.42z" fill="#e2e2e2"/></g><g opacity=".3"><path d="m24.41 55.69h-8.65c0 1.66 1.34 3 3 3h5.34c.58.78 1.48 1.21 2.41 1.21.11 0 .21-.03.32-.04v-1.75c0-1.33-1.09-2.42-2.42-2.42z" fill="#e2e2e2"/></g></g><g><g><path d="m59.24 55.69h-17.65c-1.33 0-2.42 1.08-2.42 2.42v2.97c0 1.33 1.08 2.42 2.42 2.42h17.65c1.33 0 2.42-1.08 2.42-2.42v-2.97c0-1.33-1.09-2.42-2.42-2.42z" fill="#4e6575"/></g><g opacity=".3"><path d="m59.24 55.69h-14.46v2.69c0 1.33 1.08 2.42 2.42 2.42h14.46v-2.69c0-1.33-1.09-2.42-2.42-2.42z" fill="#e2e2e2"/></g><g opacity=".3"><path d="m59.24 55.69h-8.65c0 1.66 1.34 3 3 3h5.34c.58.78 1.48 1.21 2.41 1.21.11 0 .21-.03.32-.04v-1.75c0-1.33-1.09-2.42-2.42-2.42z" fill="#e2e2e2"/></g></g><g><g><path d="m63.76 39.72-8.57-23.4c-.58-1.57-2.4-2.28-3.89-1.51-1.21.63-1.79 2.05-1.36 3.35l4.23 12.73c-.41-.48-1.07-.75-1.82-.75-1.27 0-2.3 1.03-2.3 2.3v7.62c0 .94-.3 1.86-.85 2.62l-5.68 7.89c-.55.76-.85 1.68-.85 2.62v2.51h14.79v-1.24c0-.7.18-1.38.54-1.99l5.46-9.4c.6-1.02.7-2.24.3-3.35z" fill="#7cb5e8"/></g><g opacity=".3"><path d="m51.65 52.47 5.46-9.4c.59-1.02.7-2.24.29-3.34l-3.31-9.03.06.19c-.41-.48-1.07-.75-1.82-.75-1.27 0-2.3 1.03-2.3 2.3v7.62c0 .94-.3 1.86-.85 2.62l-5.68 7.89c-.55.76-.85 1.68-.85 2.62v2.51h8.44v-1.24c.03-.7.21-1.39.56-1.99z" fill="#e2e2e2"/></g></g><g opacity=".3"><path d="m32.47 7.87c-3.19.13-6.1 1.48-8.29 3.57-.33 1.21-.52 2.48-.52 3.79 0 8 6.49 14.49 14.49 14.49 1.67 0 3.27-.3 4.76-.82 1.84-2.22 2.95-5.07 2.95-8.18 0-7.28-6.05-13.15-13.39-12.85z" fill="#fff"/></g><g opacity=".3"><path d="m38.36 38.93h-8.45c-.07.22-.12.44-.12.68 0 1.18.96 2.14 2.14 2.14h8.45c.07-.22.12-.44.12-.68 0-1.18-.96-2.14-2.14-2.14z" fill="#fff"/></g><g opacity=".3"><path d="m35.14 43.21h-2.02c-.07.22-.12.45-.12.69 0 1.18.96 2.14 2.14 2.14h2.02c.07-.22.12-.44.12-.68.01-1.19-.95-2.15-2.14-2.15z" fill="#e2e2e2"/></g><g opacity=".3"><path d="m32.47 7.87c-1.01.04-1.99.22-2.94.49.24 1.47 1.55 2.58 3.07 2.51 2.71-.1 5.29.86 7.24 2.74s3.03 4.4 3.03 7.11c0 1.53 1.15 2.78 2.63 2.96.23-.95.36-1.94.36-2.96 0-7.28-6.05-13.15-13.39-12.85z" fill="#fff"/></g></g><g><g><path d="m33 5.39c-.41 0-.75-.34-.75-.75v-2.14c0-.41.34-.75.75-.75s.75.34.75.75v2.14c0 .42-.34.75-.75.75z"/></g><g><path d="m27.5 6.36c-.31 0-.59-.19-.7-.49l-.73-2.01c-.14-.39.06-.82.45-.96s.82.06.96.45l.73 2.01c.14.39-.06.82-.45.96-.09.03-.17.04-.26.04z"/></g><g><path d="m22.67 9.15c-.21 0-.43-.09-.58-.27l-1.38-1.64c-.27-.32-.22-.79.09-1.06.32-.27.79-.22 1.06.09l1.38 1.64c.27.32.22.79-.09 1.06-.14.13-.31.18-.48.18z"/></g><g><path d="m43.33 9.15c-.17 0-.34-.06-.48-.18-.32-.27-.36-.74-.09-1.06l1.38-1.64c.27-.32.74-.36 1.06-.09s.36.74.09 1.06l-1.39 1.65c-.14.17-.36.26-.57.26z"/></g><g><path d="m38.5 6.36c-.08 0-.17-.01-.26-.05-.39-.14-.59-.57-.45-.96l.73-2.01c.14-.39.57-.59.96-.45s.59.57.45.96l-.73 2.02c-.11.3-.4.49-.7.49z"/></g><g><path d="m38.36 39.68h-10.72c-.41 0-.75-.34-.75-.75v-.65c0-1.94-.53-3.84-1.53-5.52-.21-.35-.1-.82.26-1.03.35-.21.82-.1 1.03.26 1.13 1.88 1.73 4.02 1.75 6.19h9.21c.03-3.25 1.42-6.4 3.92-8.88 2.31-2.29 3.58-5.33 3.58-8.58 0-3.33-1.32-6.43-3.72-8.73s-5.58-3.5-8.89-3.36c-6.29.25-11.49 5.58-11.6 11.88-.06 3.4 1.25 6.57 3.7 8.92.3.29.31.76.02 1.06s-.76.31-1.06.02c-2.75-2.65-4.23-6.21-4.16-10.03.13-7.07 5.98-13.06 13.04-13.35 3.74-.14 7.29 1.19 9.99 3.78s4.18 6.08 4.18 9.81c0 3.65-1.43 7.07-4.02 9.65-2.24 2.22-3.48 5.04-3.48 7.93v.64c0 .4-.34.74-.75.74z"/></g><g><path d="m41.86 21.46c-.41 0-.75-.34-.75-.75 0-4.47-3.64-8.11-8.11-8.11-.41 0-.75-.34-.75-.75s.34-.75.75-.75c5.3 0 9.61 4.31 9.61 9.61 0 .42-.34.75-.75.75z"/></g><g><path d="m38.36 43.96h-10.72c-1.59 0-2.89-1.3-2.89-2.89s1.3-2.89 2.89-2.89h10.71c1.59 0 2.89 1.3 2.89 2.89s-1.29 2.89-2.88 2.89zm-10.72-4.28c-.77 0-1.39.63-1.39 1.39s.62 1.39 1.39 1.39h10.71c.77 0 1.39-.62 1.39-1.39s-.63-1.39-1.39-1.39z"/></g><g><path d="m35.14 48.25h-4.29c-1.6 0-2.89-1.3-2.89-2.89s1.3-2.89 2.89-2.89h4.29c1.6 0 2.89 1.3 2.89 2.89.01 1.59-1.29 2.89-2.89 2.89zm-4.28-4.29c-.77 0-1.39.62-1.39 1.39s.63 1.39 1.39 1.39h4.29c.77 0 1.39-.63 1.39-1.39s-.63-1.39-1.39-1.39z"/></g><g><g><path d="m42.68 56.44c-.41 0-.75-.34-.75-.75v-2.51c0-1.1.34-2.16.99-3.06l5.68-7.89c.46-.64.7-1.39.7-2.18v-7.62c0-1.68 1.37-3.05 3.05-3.05 1.75 0 3.03 1.16 3.03 2.77l.02 7.38c0 .41-.33.75-.75.75-.41 0-.75-.33-.75-.75l-.02-7.38c0-.94-.79-1.27-1.53-1.27-.85 0-1.55.69-1.55 1.55v7.62c0 1.1-.34 2.16-.99 3.06l-5.68 7.89c-.46.64-.7 1.39-.7 2.18v2.51c0 .42-.34.75-.75.75z"/></g><g><path d="m57.47 56.44c-.41 0-.75-.34-.75-.75v-1.24c0-.83.22-1.65.64-2.36l5.46-9.4c.48-.83.57-1.81.24-2.71l-8.57-23.4c-.2-.55-.63-.98-1.17-1.19s-1.15-.18-1.67.09c-.89.46-1.31 1.49-.99 2.44l4.23 12.73c.13.39-.08.82-.48.95-.39.13-.82-.08-.95-.48l-4.23-12.72c-.55-1.66.17-3.44 1.72-4.25.9-.47 1.96-.52 2.9-.16.94.37 1.69 1.12 2.04 2.07l8.57 23.4c.48 1.32.35 2.77-.35 3.98l-5.46 9.4c-.28.49-.43 1.04-.43 1.61v1.24c0 .42-.34.75-.75.75z"/></g><g><path d="m59.24 64.25h-11.76c-.41 0-.75-.34-.75-.75s.34-.75.75-.75h11.76c.92 0 1.67-.75 1.67-1.67v-2.97c0-.92-.75-1.67-1.67-1.67h-17.65c-.92 0-1.67.75-1.67 1.67v2.97c0 .92.75 1.67 1.67 1.67h2.88c.41 0 .75.34.75.75s-.34.75-.75.75h-2.88c-1.75 0-3.17-1.42-3.17-3.17v-2.97c0-1.75 1.42-3.17 3.17-3.17h17.65c1.75 0 3.17 1.42 3.17 3.17v2.97c0 1.75-1.42 3.17-3.17 3.17z"/></g></g><g><g><path d="m23.32 56.44c-.41 0-.75-.34-.75-.75v-2.51c0-.79-.24-1.54-.7-2.18l-5.68-7.89c-.65-.9-.99-1.95-.99-3.06v-7.62c0-.85-.69-1.55-1.55-1.55-.71 0-1.53.33-1.53 1.27l-.02 7.38c0 .41-.34.75-.75.75-.41 0-.75-.34-.75-.75l.02-7.38c0-1.6 1.27-2.77 3.03-2.77 1.68 0 3.05 1.37 3.05 3.05v7.62c0 .79.24 1.54.7 2.18l5.68 7.89c.65.9.99 1.95.99 3.06v2.51c0 .42-.33.75-.75.75z"/></g><g><path d="m8.53 56.44c-.41 0-.75-.34-.75-.75v-1.24c0-.56-.15-1.12-.43-1.61l-5.46-9.4c-.7-1.21-.83-2.66-.35-3.98l8.57-23.4c.35-.95 1.09-1.71 2.04-2.07.94-.37 2-.31 2.9.16 1.55.81 2.28 2.59 1.72 4.25l-4.22 12.72c-.13.39-.55.61-.95.48-.39-.13-.61-.56-.48-.95l4.22-12.72c.32-.95-.1-1.98-.99-2.45-.52-.27-1.13-.3-1.67-.09s-.97.64-1.17 1.19l-8.57 23.4c-.33.9-.24 1.88.24 2.71l5.46 9.4c.42.72.64 1.53.64 2.36v1.24c0 .42-.33.75-.75.75z"/></g><g><path d="m24.41 64.25h-17.65c-1.75 0-3.17-1.42-3.17-3.17v-2.97c0-1.75 1.42-3.17 3.17-3.17h17.65c.77 0 1.51.28 2.09.78.31.27.34.75.07 1.06s-.75.34-1.06.07c-.3-.27-.69-.41-1.1-.41h-17.65c-.92 0-1.67.75-1.67 1.67v2.97c0 .92.75 1.67 1.67 1.67h17.65c.92 0 1.67-.75 1.67-1.67v-2.46c0-.41.34-.75.75-.75s.75.34.75.75v2.46c0 1.75-1.42 3.17-3.17 3.17z"/></g></g></g></g></svg>