<?xml version="1.0" encoding="UTF-8" standalone="no"?>
<svg
   id="Layer_1"
   enable-background="new 0 0 66 66"
   height="484.84848"
   viewBox="0 0 63.491525 62.499999"
   width="492.54031"
   version="1.1"
   sodipodi:docname="c61d3a49bee97e9b0974656d4e2e97cb.svg"
   xmlns:inkscape="http://www.inkscape.org/namespaces/inkscape"
   xmlns:sodipodi="http://sodipodi.sourceforge.net/DTD/sodipodi-0.dtd"
   xmlns="http://www.w3.org/2000/svg"
   xmlns:svg="http://www.w3.org/2000/svg">
  <defs
     id="defs151" />
  <sodipodi:namedview
     id="namedview149"
     pagecolor="#ffffff"
     bordercolor="#666666"
     borderopacity="1.0"
     inkscape:pageshadow="2"
     inkscape:pageopacity="0.0"
     inkscape:pagecheckerboard="0" />
  <g
     id="g146"
     transform="translate(-1.2542368,-1.75)">
    <g
       id="g78">
      <g
         id="g10">
        <g
           id="g4">
          <path
             d="M 2.54,43.07 8,52.47 c 0.35,0.6 0.54,1.29 0.54,1.99 v 1.24 h 14.79 v -2.51 c 0,-0.94 -0.3,-1.86 -0.85,-2.62 L 16.8,42.68 C 16.25,41.92 15.95,41 15.95,40.06 v -7.62 c 0,-1.27 -1.03,-2.3 -2.3,-2.3 -0.75,0 -1.41,0.27 -1.82,0.75 l 4.23,-12.73 c 0.43,-1.3 -0.14,-2.72 -1.36,-3.35 -1.49,-0.77 -3.31,-0.06 -3.89,1.51 l -8.57,23.4 c -0.4,1.11 -0.3,2.33 0.3,3.35 z"
             fill="#7cb5e8"
             id="path2" />
        </g>
        <g
           opacity="0.3"
           id="g8">
          <path
             d="M 14.35,52.47 8.89,43.07 C 8.3,42.05 8.19,40.83 8.6,39.73 l 3.31,-9.03 -0.06,0.19 c 0.41,-0.48 1.07,-0.75 1.82,-0.75 1.27,0 2.3,1.03 2.3,2.3 v 7.62 c 0,0.94 0.3,1.86 0.85,2.62 l 5.68,7.89 c 0.55,0.76 0.85,1.68 0.85,2.62 v 2.51 h -8.44 v -1.24 c -0.03,-0.7 -0.21,-1.39 -0.56,-1.99 z"
             fill="#e2e2e2"
             id="path6" />
        </g>
      </g>
      <g
         id="g14">
        <path
           d="m 32.47,7.87 c -6.71,0.27 -12.2,5.9 -12.32,12.61 -0.07,3.73 1.46,7.09 3.93,9.48 2.27,2.18 3.57,5.18 3.57,8.32 v 0.65 h 10.71 v -0.64 c 0,-3.21 1.42,-6.2 3.7,-8.46 2.35,-2.33 3.8,-5.55 3.8,-9.11 0,-7.28 -6.05,-13.15 -13.39,-12.85 z"
           fill="#ffab03"
           id="path12" />
      </g>
      <g
         id="g18">
        <path
           d="M 38.36,38.93 H 27.64 c -1.18,0 -2.14,0.96 -2.14,2.14 0,1.18 0.96,2.14 2.14,2.14 h 10.71 c 1.18,0 2.14,-0.96 2.14,-2.14 0.01,-1.18 -0.95,-2.14 -2.13,-2.14 z"
           fill="#e2e2e2"
           id="path16" />
      </g>
      <g
         id="g22">
        <path
           d="m 35.14,43.21 h -4.29 c -1.18,0 -2.14,0.96 -2.14,2.14 0,1.18 0.96,2.14 2.14,2.14 h 4.29 c 1.18,0 2.14,-0.96 2.14,-2.14 0.01,-1.18 -0.95,-2.14 -2.14,-2.14 z"
           fill="#4e6575"
           id="path20" />
      </g>
      <g
         id="g36">
        <g
           id="g26">
          <path
             d="M 24.41,55.69 H 6.76 c -1.33,0 -2.42,1.08 -2.42,2.42 v 2.97 c 0,1.33 1.08,2.42 2.42,2.42 h 17.65 c 1.33,0 2.42,-1.08 2.42,-2.42 v -2.97 c 0,-1.33 -1.09,-2.42 -2.42,-2.42 z"
             fill="#4e6575"
             id="path24" />
        </g>
        <g
           opacity="0.3"
           id="g30">
          <path
             d="M 24.41,55.69 H 9.95 v 2.69 c 0,1.33 1.08,2.42 2.42,2.42 h 14.46 v -2.69 c 0,-1.33 -1.09,-2.42 -2.42,-2.42 z"
             fill="#e2e2e2"
             id="path28" />
        </g>
        <g
           opacity="0.3"
           id="g34">
          <path
             d="m 24.41,55.69 h -8.65 c 0,1.66 1.34,3 3,3 h 5.34 c 0.58,0.78 1.48,1.21 2.41,1.21 0.11,0 0.21,-0.03 0.32,-0.04 v -1.75 c 0,-1.33 -1.09,-2.42 -2.42,-2.42 z"
             fill="#e2e2e2"
             id="path32" />
        </g>
      </g>
      <g
         id="g50">
        <g
           id="g40">
          <path
             d="M 59.24,55.69 H 41.59 c -1.33,0 -2.42,1.08 -2.42,2.42 v 2.97 c 0,1.33 1.08,2.42 2.42,2.42 h 17.65 c 1.33,0 2.42,-1.08 2.42,-2.42 v -2.97 c 0,-1.33 -1.09,-2.42 -2.42,-2.42 z"
             fill="#4e6575"
             id="path38" />
        </g>
        <g
           opacity="0.3"
           id="g44">
          <path
             d="M 59.24,55.69 H 44.78 v 2.69 c 0,1.33 1.08,2.42 2.42,2.42 h 14.46 v -2.69 c 0,-1.33 -1.09,-2.42 -2.42,-2.42 z"
             fill="#e2e2e2"
             id="path42" />
        </g>
        <g
           opacity="0.3"
           id="g48">
          <path
             d="m 59.24,55.69 h -8.65 c 0,1.66 1.34,3 3,3 h 5.34 c 0.58,0.78 1.48,1.21 2.41,1.21 0.11,0 0.21,-0.03 0.32,-0.04 v -1.75 c 0,-1.33 -1.09,-2.42 -2.42,-2.42 z"
             fill="#e2e2e2"
             id="path46" />
        </g>
      </g>
      <g
         id="g60">
        <g
           id="g54">
          <path
             d="m 63.76,39.72 -8.57,-23.4 c -0.58,-1.57 -2.4,-2.28 -3.89,-1.51 -1.21,0.63 -1.79,2.05 -1.36,3.35 l 4.23,12.73 c -0.41,-0.48 -1.07,-0.75 -1.82,-0.75 -1.27,0 -2.3,1.03 -2.3,2.3 v 7.62 c 0,0.94 -0.3,1.86 -0.85,2.62 l -5.68,7.89 c -0.55,0.76 -0.85,1.68 -0.85,2.62 v 2.51 h 14.79 v -1.24 c 0,-0.7 0.18,-1.38 0.54,-1.99 l 5.46,-9.4 c 0.6,-1.02 0.7,-2.24 0.3,-3.35 z"
             fill="#7cb5e8"
             id="path52" />
        </g>
        <g
           opacity="0.3"
           id="g58">
          <path
             d="m 51.65,52.47 5.46,-9.4 c 0.59,-1.02 0.7,-2.24 0.29,-3.34 l -3.31,-9.03 0.06,0.19 c -0.41,-0.48 -1.07,-0.75 -1.82,-0.75 -1.27,0 -2.3,1.03 -2.3,2.3 v 7.62 c 0,0.94 -0.3,1.86 -0.85,2.62 l -5.68,7.89 c -0.55,0.76 -0.85,1.68 -0.85,2.62 v 2.51 h 8.44 v -1.24 c 0.03,-0.7 0.21,-1.39 0.56,-1.99 z"
             fill="#e2e2e2"
             id="path56" />
        </g>
      </g>
      <g
         opacity="0.3"
         id="g64">
        <path
           d="m 32.47,7.87 c -3.19,0.13 -6.1,1.48 -8.29,3.57 -0.33,1.21 -0.52,2.48 -0.52,3.79 0,8 6.49,14.49 14.49,14.49 1.67,0 3.27,-0.3 4.76,-0.82 1.84,-2.22 2.95,-5.07 2.95,-8.18 0,-7.28 -6.05,-13.15 -13.39,-12.85 z"
           fill="#ffffff"
           id="path62" />
      </g>
      <g
         opacity="0.3"
         id="g68">
        <path
           d="m 38.36,38.93 h -8.45 c -0.07,0.22 -0.12,0.44 -0.12,0.68 0,1.18 0.96,2.14 2.14,2.14 h 8.45 c 0.07,-0.22 0.12,-0.44 0.12,-0.68 0,-1.18 -0.96,-2.14 -2.14,-2.14 z"
           fill="#ffffff"
           id="path66" />
      </g>
      <g
         opacity="0.3"
         id="g72">
        <path
           d="M 35.14,43.21 H 33.12 C 33.05,43.43 33,43.66 33,43.9 c 0,1.18 0.96,2.14 2.14,2.14 h 2.02 c 0.07,-0.22 0.12,-0.44 0.12,-0.68 0.01,-1.19 -0.95,-2.15 -2.14,-2.15 z"
           fill="#e2e2e2"
           id="path70" />
      </g>
      <g
         opacity="0.3"
         id="g76">
        <path
           d="m 32.47,7.87 c -1.01,0.04 -1.99,0.22 -2.94,0.49 0.24,1.47 1.55,2.58 3.07,2.51 2.71,-0.1 5.29,0.86 7.24,2.74 1.95,1.88 3.03,4.4 3.03,7.11 0,1.53 1.15,2.78 2.63,2.96 0.23,-0.95 0.36,-1.94 0.36,-2.96 0,-7.28 -6.05,-13.15 -13.39,-12.85 z"
           fill="#ffffff"
           id="path74" />
      </g>
    </g>
    <g
       id="g144">
      <g
         id="g82">
        <path
           d="m 33,5.39 c -0.41,0 -0.75,-0.34 -0.75,-0.75 V 2.5 c 0,-0.41 0.34,-0.75 0.75,-0.75 0.41,0 0.75,0.34 0.75,0.75 v 2.14 c 0,0.42 -0.34,0.75 -0.75,0.75 z"
           id="path80" />
      </g>
      <g
         id="g86">
        <path
           d="m 27.5,6.36 c -0.31,0 -0.59,-0.19 -0.7,-0.49 L 26.07,3.86 c -0.14,-0.39 0.06,-0.82 0.45,-0.96 0.39,-0.14 0.82,0.06 0.96,0.45 l 0.73,2.01 c 0.14,0.39 -0.06,0.82 -0.45,0.96 -0.09,0.03 -0.17,0.04 -0.26,0.04 z"
           id="path84" />
      </g>
      <g
         id="g90">
        <path
           d="m 22.67,9.15 c -0.21,0 -0.43,-0.09 -0.58,-0.27 L 20.71,7.24 C 20.44,6.92 20.49,6.45 20.8,6.18 21.12,5.91 21.59,5.96 21.86,6.27 l 1.38,1.64 c 0.27,0.32 0.22,0.79 -0.09,1.06 -0.14,0.13 -0.31,0.18 -0.48,0.18 z"
           id="path88" />
      </g>
      <g
         id="g94">
        <path
           d="M 43.33,9.15 C 43.16,9.15 42.99,9.09 42.85,8.97 42.53,8.7 42.49,8.23 42.76,7.91 l 1.38,-1.64 c 0.27,-0.32 0.74,-0.36 1.06,-0.09 0.32,0.27 0.36,0.74 0.09,1.06 L 43.9,8.89 c -0.14,0.17 -0.36,0.26 -0.57,0.26 z"
           id="path92" />
      </g>
      <g
         id="g98">
        <path
           d="M 38.5,6.36 C 38.42,6.36 38.33,6.35 38.24,6.31 37.85,6.17 37.65,5.74 37.79,5.35 l 0.73,-2.01 c 0.14,-0.39 0.57,-0.59 0.96,-0.45 0.39,0.14 0.59,0.57 0.45,0.96 L 39.2,5.87 c -0.11,0.3 -0.4,0.49 -0.7,0.49 z"
           id="path96" />
      </g>
      <g
         id="g102">
        <path
           d="M 38.36,39.68 H 27.64 c -0.41,0 -0.75,-0.34 -0.75,-0.75 v -0.65 c 0,-1.94 -0.53,-3.84 -1.53,-5.52 -0.21,-0.35 -0.1,-0.82 0.26,-1.03 0.35,-0.21 0.82,-0.1 1.03,0.26 1.13,1.88 1.73,4.02 1.75,6.19 h 9.21 c 0.03,-3.25 1.42,-6.4 3.92,-8.88 2.31,-2.29 3.58,-5.33 3.58,-8.58 0,-3.33 -1.32,-6.43 -3.72,-8.73 -2.4,-2.3 -5.58,-3.5 -8.89,-3.36 -6.29,0.25 -11.49,5.58 -11.6,11.88 -0.06,3.4 1.25,6.57 3.7,8.92 0.3,0.29 0.31,0.76 0.02,1.06 -0.29,0.3 -0.76,0.31 -1.06,0.02 C 20.81,27.86 19.33,24.3 19.4,20.48 19.53,13.41 25.38,7.42 32.44,7.13 c 3.74,-0.14 7.29,1.19 9.99,3.78 2.7,2.59 4.18,6.08 4.18,9.81 0,3.65 -1.43,7.07 -4.02,9.65 -2.24,2.22 -3.48,5.04 -3.48,7.93 v 0.64 c 0,0.4 -0.34,0.74 -0.75,0.74 z"
           id="path100" />
      </g>
      <g
         id="g106">
        <path
           d="m 41.86,21.46 c -0.41,0 -0.75,-0.34 -0.75,-0.75 0,-4.47 -3.64,-8.11 -8.11,-8.11 -0.41,0 -0.75,-0.34 -0.75,-0.75 0,-0.41 0.34,-0.75 0.75,-0.75 5.3,0 9.61,4.31 9.61,9.61 0,0.42 -0.34,0.75 -0.75,0.75 z"
           id="path104" />
      </g>
      <g
         id="g110">
        <path
           d="M 38.36,43.96 H 27.64 c -1.59,0 -2.89,-1.3 -2.89,-2.89 0,-1.59 1.3,-2.89 2.89,-2.89 h 10.71 c 1.59,0 2.89,1.3 2.89,2.89 0,1.59 -1.29,2.89 -2.88,2.89 z M 27.64,39.68 c -0.77,0 -1.39,0.63 -1.39,1.39 0,0.76 0.62,1.39 1.39,1.39 h 10.71 c 0.77,0 1.39,-0.62 1.39,-1.39 0,-0.77 -0.63,-1.39 -1.39,-1.39 z"
           id="path108" />
      </g>
      <g
         id="g114">
        <path
           d="m 35.14,48.25 h -4.29 c -1.6,0 -2.89,-1.3 -2.89,-2.89 0,-1.59 1.3,-2.89 2.89,-2.89 h 4.29 c 1.6,0 2.89,1.3 2.89,2.89 0.01,1.59 -1.29,2.89 -2.89,2.89 z m -4.28,-4.29 c -0.77,0 -1.39,0.62 -1.39,1.39 0,0.77 0.63,1.39 1.39,1.39 h 4.29 c 0.77,0 1.39,-0.63 1.39,-1.39 0,-0.76 -0.63,-1.39 -1.39,-1.39 z"
           id="path112" />
      </g>
      <g
         id="g128">
        <g
           id="g118">
          <path
             d="m 42.68,56.44 c -0.41,0 -0.75,-0.34 -0.75,-0.75 v -2.51 c 0,-1.1 0.34,-2.16 0.99,-3.06 l 5.68,-7.89 c 0.46,-0.64 0.7,-1.39 0.7,-2.18 v -7.62 c 0,-1.68 1.37,-3.05 3.05,-3.05 1.75,0 3.03,1.16 3.03,2.77 l 0.02,7.38 c 0,0.41 -0.33,0.75 -0.75,0.75 -0.41,0 -0.75,-0.33 -0.75,-0.75 l -0.02,-7.38 c 0,-0.94 -0.79,-1.27 -1.53,-1.27 -0.85,0 -1.55,0.69 -1.55,1.55 v 7.62 c 0,1.1 -0.34,2.16 -0.99,3.06 L 44.13,51 c -0.46,0.64 -0.7,1.39 -0.7,2.18 v 2.51 c 0,0.42 -0.34,0.75 -0.75,0.75 z"
             id="path116" />
        </g>
        <g
           id="g122">
          <path
             d="m 57.47,56.44 c -0.41,0 -0.75,-0.34 -0.75,-0.75 v -1.24 c 0,-0.83 0.22,-1.65 0.64,-2.36 l 5.46,-9.4 c 0.48,-0.83 0.57,-1.81 0.24,-2.71 l -8.57,-23.4 c -0.2,-0.55 -0.63,-0.98 -1.17,-1.19 -0.54,-0.21 -1.15,-0.18 -1.67,0.09 -0.89,0.46 -1.31,1.49 -0.99,2.44 l 4.23,12.73 c 0.13,0.39 -0.08,0.82 -0.48,0.95 -0.39,0.13 -0.82,-0.08 -0.95,-0.48 L 49.23,18.4 c -0.55,-1.66 0.17,-3.44 1.72,-4.25 0.9,-0.47 1.96,-0.52 2.9,-0.16 0.94,0.37 1.69,1.12 2.04,2.07 l 8.57,23.4 c 0.48,1.32 0.35,2.77 -0.35,3.98 l -5.46,9.4 c -0.28,0.49 -0.43,1.04 -0.43,1.61 v 1.24 c 0,0.42 -0.34,0.75 -0.75,0.75 z"
             id="path120" />
        </g>
        <g
           id="g126">
          <path
             d="M 59.24,64.25 H 47.48 c -0.41,0 -0.75,-0.34 -0.75,-0.75 0,-0.41 0.34,-0.75 0.75,-0.75 h 11.76 c 0.92,0 1.67,-0.75 1.67,-1.67 v -2.97 c 0,-0.92 -0.75,-1.67 -1.67,-1.67 H 41.59 c -0.92,0 -1.67,0.75 -1.67,1.67 v 2.97 c 0,0.92 0.75,1.67 1.67,1.67 h 2.88 c 0.41,0 0.75,0.34 0.75,0.75 0,0.41 -0.34,0.75 -0.75,0.75 h -2.88 c -1.75,0 -3.17,-1.42 -3.17,-3.17 v -2.97 c 0,-1.75 1.42,-3.17 3.17,-3.17 h 17.65 c 1.75,0 3.17,1.42 3.17,3.17 v 2.97 c 0,1.75 -1.42,3.17 -3.17,3.17 z"
             id="path124" />
        </g>
      </g>
      <g
         id="g142">
        <g
           id="g132">
          <path
             d="m 23.32,56.44 c -0.41,0 -0.75,-0.34 -0.75,-0.75 v -2.51 c 0,-0.79 -0.24,-1.54 -0.7,-2.18 L 16.19,43.11 C 15.54,42.21 15.2,41.16 15.2,40.05 v -7.62 c 0,-0.85 -0.69,-1.55 -1.55,-1.55 -0.71,0 -1.53,0.33 -1.53,1.27 l -0.02,7.38 c 0,0.41 -0.34,0.75 -0.75,0.75 -0.41,0 -0.75,-0.34 -0.75,-0.75 l 0.02,-7.38 c 0,-1.6 1.27,-2.77 3.03,-2.77 1.68,0 3.05,1.37 3.05,3.05 v 7.62 c 0,0.79 0.24,1.54 0.7,2.18 l 5.68,7.89 c 0.65,0.9 0.99,1.95 0.99,3.06 v 2.51 c 0,0.42 -0.33,0.75 -0.75,0.75 z"
             id="path130" />
        </g>
        <g
           id="g136">
          <path
             d="m 8.53,56.44 c -0.41,0 -0.75,-0.34 -0.75,-0.75 v -1.24 c 0,-0.56 -0.15,-1.12 -0.43,-1.61 L 1.89,43.44 C 1.19,42.23 1.06,40.78 1.54,39.46 l 8.57,-23.4 c 0.35,-0.95 1.09,-1.71 2.04,-2.07 0.94,-0.37 2,-0.31 2.9,0.16 1.55,0.81 2.28,2.59 1.72,4.25 L 12.55,31.12 C 12.42,31.51 12,31.73 11.6,31.6 11.21,31.47 10.99,31.04 11.12,30.65 l 4.22,-12.72 c 0.32,-0.95 -0.1,-1.98 -0.99,-2.45 -0.52,-0.27 -1.13,-0.3 -1.67,-0.09 -0.54,0.21 -0.97,0.64 -1.17,1.19 l -8.57,23.4 c -0.33,0.9 -0.24,1.88 0.24,2.71 l 5.46,9.4 c 0.42,0.72 0.64,1.53 0.64,2.36 v 1.24 c 0,0.42 -0.33,0.75 -0.75,0.75 z"
             id="path134" />
        </g>
        <g
           id="g140">
          <path
             d="M 24.41,64.25 H 6.76 c -1.75,0 -3.17,-1.42 -3.17,-3.17 v -2.97 c 0,-1.75 1.42,-3.17 3.17,-3.17 h 17.65 c 0.77,0 1.51,0.28 2.09,0.78 0.31,0.27 0.34,0.75 0.07,1.06 -0.27,0.31 -0.75,0.34 -1.06,0.07 -0.3,-0.27 -0.69,-0.41 -1.1,-0.41 H 6.76 c -0.92,0 -1.67,0.75 -1.67,1.67 v 2.97 c 0,0.92 0.75,1.67 1.67,1.67 h 17.65 c 0.92,0 1.67,-0.75 1.67,-1.67 v -2.46 c 0,-0.41 0.34,-0.75 0.75,-0.75 0.41,0 0.75,0.34 0.75,0.75 v 2.46 c 0,1.75 -1.42,3.17 -3.17,3.17 z"
             id="path138" />
        </g>
      </g>
    </g>
  </g>
</svg>
