<svg height="60" viewBox="0 0 60 60" width="60" xmlns="http://www.w3.org/2000/svg"><g id="Page-1" fill="none" fill-rule="evenodd"><g id="043---Menu" fill-rule="nonzero"><g id="Colour" transform="translate(1 1)"><path id="Shape" d="m54 58h-50c-2.209139 0-4-1.790861-4-4v-50c0-2.209139 1.790861-4 4-4h50c2.209139 0 4 1.790861 4 4v50c0 2.209139-1.790861 4-4 4" fill="#c4e5ec"/><g fill="#ec4e5a"><path id="Shape" d="m46 18h-34c-2.209139 0-4-1.790861-4-4s1.790861-4 4-4h34c2.209139 0 4 1.790861 4 4s-1.790861 4-4 4z"/><path id="Shape" d="m46 48h-34c-2.209139 0-4-1.790861-4-4s1.790861-4 4-4h34c2.209139 0 4 1.790861 4 4s-1.790861 4-4 4z"/><path id="Shape" d="m46 33h-34c-2.209139 0-4-1.790861-4-4s1.790861-4 4-4h34c2.209139 0 4 1.790861 4 4s-1.790861 4-4 4z"/></g></g><g id="Shadows" fill="#b0ced4" transform="translate(51 1)"><path id="Shape" d="m4 0h-4c2.209139 0 4 1.790861 4 4v50c0 2.209139-1.790861 4-4 4h4c2.209139 0 4-1.790861 4-4v-50c0-2.209139-1.790861-4-4-4"/></g><g id="Outer_Lines" fill="#17173f"><path id="Shape" d="m55 0h-50c-2.76005315.00330612-4.99669388 2.23994685-5 5v50c.00330612 2.7600532 2.23994685 4.9966939 5 5h50c2.7600532-.0033061 4.9966939-2.2399468 5-5v-50c-.0033061-2.76005315-2.2399468-4.99669388-5-5zm3 55c0 1.6568542-1.3431458 3-3 3h-50c-1.65685425 0-3-1.3431458-3-3v-50c0-1.65685425 1.34314575-3 3-3h50c1.6568542 0 3 1.34314575 3 3z"/><path id="Shape" d="m47 10h-34c-2.7614237 0-5 2.2385763-5 5s2.2385763 5 5 5h34c2.7614237 0 5-2.2385763 5-5s-2.2385763-5-5-5zm0 8h-34c-1.6568542 0-3-1.3431458-3-3s1.3431458-3 3-3h34c1.6568542 0 3 1.3431458 3 3s-1.3431458 3-3 3z"/><path id="Shape" d="m47 40h-34c-2.7614237 0-5 2.2385763-5 5s2.2385763 5 5 5h34c2.7614237 0 5-2.2385763 5-5s-2.2385763-5-5-5zm0 8h-34c-1.6568542 0-3-1.3431458-3-3s1.3431458-3 3-3h34c1.6568542 0 3 1.3431458 3 3s-1.3431458 3-3 3z"/><path id="Shape" d="m47 25h-34c-2.7614237 0-5 2.2385763-5 5s2.2385763 5 5 5h34c2.7614237 0 5-2.2385763 5-5s-2.2385763-5-5-5zm0 8h-34c-1.6568542 0-3-1.3431458-3-3s1.3431458-3 3-3h34c1.6568542 0 3 1.3431458 3 3s-1.3431458 3-3 3z"/><path id="Shape" d="m5 49c-.55228475 0-1 .4477153-1 1v2c0 .5522847.44771525 1 1 1s1-.4477153 1-1v-2c0-.5522847-.44771525-1-1-1z"/><path id="Shape" d="m5 13c-.55228475 0-1 .4477153-1 1v32c0 .5522847.44771525 1 1 1s1-.4477153 1-1v-32c0-.5522847-.44771525-1-1-1z"/><path id="Shape" d="m5 7c-.55228475 0-1 .44771525-1 1v2c0 .5522847.44771525 1 1 1s1-.4477153 1-1v-2c0-.55228475-.44771525-1-1-1z"/></g></g></g></svg>