<svg fill="none" height="512" viewBox="0 0 24 24" width="512" xmlns="http://www.w3.org/2000/svg"><path d="m12 2c-3.86599 0-7 3.17471-7 7.09091 0 2.08929.89197 3.96749 2.3112 5.26519.48073.4396.81804 1.0345.81804 1.6859 0 1.0814.87664 1.958 1.95806 1.958h3.8254c1.0814 0 1.9581-.8766 1.9581-1.958 0-.6514.3373-1.2463.818-1.6859 1.4192-1.2977 2.3112-3.1759 2.3112-5.26519 0-3.9162-3.134-7.09091-7-7.09091z" fill="#42a5f5"/><path clip-rule="evenodd" d="m12 2.75c-3.44269 0-6.25 2.82977-6.25 6.34091 0 1.87169.7982 3.55129 2.06731 4.71169.59006.5396 1.06193 1.3222 1.06193 2.2394 0 .6671.54086 1.208 1.20806 1.208h3.8254c.6672 0 1.2081-.5409 1.2081-1.208 0-.9172.4718-1.6998 1.0619-2.2394 1.2691-1.1604 2.0673-2.84 2.0673-4.71169 0-3.51114-2.8073-6.34091-6.25-6.34091zm-7.75 6.34091c0-4.32126 3.4607-7.84091 7.75-7.84091s7.75 3.51965 7.75 7.84091c0 2.30689-.9858 4.38369-2.5551 5.81869-.3714.3396-.5741.7467-.5741 1.1324 0 1.4956-1.2125 2.708-2.7081 2.708h-3.8254c-1.49563 0-2.70806-1.2124-2.70806-2.708 0-.3857-.20275-.7928-.57414-1.1324-1.56935-1.435-2.5551-3.5118-2.5551-5.81869z" fill="#1976d2" fill-rule="evenodd"/><path d="m14.75 19.25h-5.5v.75c0 1.5188 1.2312 2.75 2.75 2.75s2.75-1.2312 2.75-2.75z" fill="#42a5f5"/><path clip-rule="evenodd" d="m8.25 20c0-.4142.33579-.75.75-.75h6c.4142 0 .75.3358.75.75s-.3358.75-.75.75h-6c-.41421 0-.75-.3358-.75-.75z" fill="#1976d2" fill-rule="evenodd"/></svg>