<svg id="Capa_1" enable-background="new 0 0 512 512" height="512" viewBox="0 0 512 512" width="512" xmlns="http://www.w3.org/2000/svg"><g><g><path d="m497.431 512h-482.862c-8.046 0-14.569-6.523-14.569-14.569v-430.829h512v430.829c0 8.046-6.523 14.569-14.569 14.569z" fill="#e6f7fe"/></g><g><path d="m497.431 512h-16.65v-445.398h31.219v430.829c0 8.046-6.523 14.569-14.569 14.569z" fill="#d3effd"/></g><g><path d="m512 66.602h-512v-52.033c0-8.046 6.523-14.569 14.569-14.569h482.862c8.046 0 14.569 6.523 14.569 14.569z" fill="#6c7fd8"/></g><g><path d="m512 66.602h-31.22v-66.602h16.65c8.047 0 14.57 6.523 14.57 14.569z" fill="#4f66d0"/></g><g><circle cx="478.699" cy="33.301" fill="#bbf49b" r="8.325"/></g><g><circle cx="445.398" cy="33.301" fill="#ffe177" r="8.325"/></g><g><circle cx="412.098" cy="33.301" fill="#fe7ab6" r="8.325"/></g><g><g><path d="m323.122 191.729c0-2.407-.132-4.783-.383-7.123-.258-2.406.501-4.808 2.141-6.588l12.17-13.214c2.467-2.678 2.907-6.649 1.086-9.803l-9.262-16.041c-1.821-3.153-5.479-4.758-9.032-3.961l-17.526 3.932c-2.361.53-4.822-.014-6.776-1.441-3.829-2.794-7.967-5.191-12.35-7.134-2.209-.979-3.906-2.837-4.627-5.143l-5.356-17.138c-1.086-3.476-4.305-5.842-7.946-5.842h-18.523c-3.641 0-6.86 2.366-7.946 5.842l-5.356 17.138c-.721 2.306-2.418 4.164-4.627 5.143-4.384 1.943-8.521 4.34-12.35 7.134-1.955 1.427-4.415 1.971-6.776 1.441l-17.526-3.931c-3.553-.797-7.212.807-9.032 3.961l-9.262 16.041c-1.821 3.153-1.381 7.124 1.086 9.803l12.17 13.214c1.64 1.78 2.399 4.182 2.141 6.588-.251 2.34-.383 4.716-.383 7.123s.132 4.783.383 7.123c.258 2.406-.501 4.808-2.141 6.588l-12.17 13.214c-2.467 2.678-2.907 6.649-1.086 9.803l9.262 16.041c1.821 3.153 5.479 4.758 9.032 3.961l17.526-3.932c2.361-.53 4.822.014 6.776 1.441 3.829 2.794 7.967 5.191 12.35 7.134 2.209.979 3.906 2.837 4.627 5.143l5.356 17.138c1.086 3.476 4.305 5.842 7.946 5.842h18.523c3.641 0 6.86-2.366 7.946-5.842l5.356-17.138c.721-2.306 2.418-4.164 4.627-5.143 4.384-1.943 8.521-4.34 12.35-7.134 1.955-1.427 4.415-1.971 6.776-1.441l17.526 3.932c3.553.797 7.212-.807 9.032-3.961l9.262-16.041c1.821-3.153 1.381-7.124-1.086-9.803l-12.17-13.214c-1.639-1.78-2.399-4.182-2.141-6.588.251-2.341.383-4.717.383-7.124zm-44.748 0c0 12.357-10.017 22.374-22.374 22.374s-22.374-10.017-22.374-22.374 10.017-22.374 22.374-22.374 22.374 10.018 22.374 22.374z" fill="#fea95c"/></g><g><path d="m324.88 205.44c-1.639-1.78-2.399-4.182-2.141-6.588.251-2.34.383-4.716.383-7.123s-.132-4.783-.383-7.123c-.258-2.406.501-4.808 2.141-6.588l12.17-13.214c2.467-2.678 2.907-6.649 1.086-9.803l-9.261-16.041c-1.821-3.154-5.479-4.758-9.032-3.961l-7.704 1.729c1.059 5.685 1.618 11.545 1.618 17.537 0 51.519-40.916 93.475-92.025 95.16 2.279 1.355 4.636 2.592 7.079 3.675 2.209.979 3.906 2.837 4.627 5.143l5.356 17.138c1.086 3.476 4.305 5.842 7.946 5.842h18.523c3.641 0 6.86-2.366 7.946-5.842l5.356-17.138c.721-2.306 2.418-4.164 4.627-5.143 4.384-1.943 8.521-4.34 12.35-7.134 1.955-1.427 4.415-1.971 6.776-1.441l17.526 3.932c3.553.797 7.212-.807 9.032-3.961l9.261-16.041c1.821-3.154 1.381-7.124-1.086-9.803z" fill="#fe9738"/></g></g><g><g><path d="m376.715 381.128h-241.43c-8.046 0-14.569-6.523-14.569-14.569v-70.764c0-8.046 6.523-14.569 14.569-14.569h241.431c8.046 0 14.569 6.523 14.569 14.569v70.764c0 8.046-6.523 14.569-14.57 14.569z" fill="#b6c4cf"/></g><g><path d="m376.715 281.225h-27.057c8.046 0 14.569 6.523 14.569 14.569v70.764c0 8.046-6.523 14.569-14.569 14.569h27.057c8.046 0 14.569-6.523 14.569-14.569v-70.764c.001-8.046-6.522-14.569-14.569-14.569z" fill="#9facba"/></g><g><path d="m457.886 456.055h-139.447v-41.626h139.447c11.495 0 20.813 9.318 20.813 20.813 0 11.494-9.318 20.813-20.813 20.813z" fill="#8ac9fe"/></g><g><path d="m318.439 456.055h-264.325c-11.495 0-20.813-9.318-20.813-20.813 0-11.495 9.318-20.813 20.813-20.813h264.325c11.495 0 20.813 9.318 20.813 20.813 0 11.494-9.318 20.813-20.813 20.813z" fill="#9be69d"/></g><g><circle cx="170.666" cy="331.177" fill="#9be69d" r="16.65"/></g></g><g><path d="m255.032 347.002c-4.143 0-7.5-3.358-7.5-7.5v-16.65c0-4.142 3.357-7.5 7.5-7.5s7.5 3.358 7.5 7.5v16.65c0 4.142-3.357 7.5-7.5 7.5z" fill="#7a8c98"/></g><g><path d="m221.731 347.002c-4.143 0-7.5-3.358-7.5-7.5v-16.65c0-4.142 3.357-7.5 7.5-7.5s7.5 3.358 7.5 7.5v16.65c0 4.142-3.357 7.5-7.5 7.5z" fill="#7a8c98"/></g><g><path d="m288.333 347.002c-4.143 0-7.5-3.358-7.5-7.5v-16.65c0-4.142 3.357-7.5 7.5-7.5s7.5 3.358 7.5 7.5v16.65c0 4.142-3.357 7.5-7.5 7.5z" fill="#7a8c98"/></g><g><path d="m321.634 347.002c-4.143 0-7.5-3.358-7.5-7.5v-16.65c0-4.142 3.357-7.5 7.5-7.5s7.5 3.358 7.5 7.5v16.65c0 4.142-3.358 7.5-7.5 7.5z" fill="#7a8c98"/></g><g><path d="m354.935 347.002c-4.143 0-7.5-3.358-7.5-7.5v-16.65c0-4.142 3.357-7.5 7.5-7.5s7.5 3.358 7.5 7.5v16.65c0 4.142-3.358 7.5-7.5 7.5z" fill="#7a8c98"/></g></g></svg>