<svg id="Layer_5" enable-background="new 0 0 62 62" height="512" viewBox="0 0 62 62" width="512" xmlns="http://www.w3.org/2000/svg"><g><g><g><path d="m61 55.56v5.44h-26v-5.44c0-3.81 2.69-7.1 6.43-7.85l1.48-.29 2.09 5.58 3-3 3 3 2.09-5.58 1.48.29c3.74.75 6.43 4.04 6.43 7.85z" fill="#b4dd7f"/></g><g><path d="m51 47 2.09.42-2.09 5.58-3-3z" fill="#a0d468"/></g><g><path d="m48 50-3 3-2.09-5.58 2.09-.42z" fill="#a0d468"/></g><g><path d="m56.09 24.18c1.81 1.13 2.91 3.12 2.91 5.25 0 1.35-.44 2.66-1.24 3.72-.24-.1-.49-.15-.76-.15h-2-3.53c-1.07 0-2.08-.3-2.95-.84s-1.6-1.32-2.07-2.27c-.28-.54-.84-.89-1.45-.89s-1.17.35-1.45.89l-.55 1.11h-.38c-.9 0-1.62.72-1.62 1.62v.38h-2c-.3 0-.57.06-.82.18-.76-1.24-1.18-2.69-1.18-4.18 0-1.1.45-2.1 1.17-2.83.73-.72 1.73-1.17 2.83-1.17.62-1.22 1.55-2.22 2.67-2.92 1.12-.69 2.43-1.08 3.8-1.08h1.45c1.36 0 2.69.38 3.84 1.1z" fill="#b27946"/></g><g><path d="m25 35v8c0 2.14-.61 4.14-1.67 5.83v.01c-.82-.54-1.75-.93-2.76-1.13l-1.12-.22-2.45-.49v-2.38c0-.38.21-.73.55-.9l.13-.06c2.04-1.02 3.32-3.1 3.32-5.37v-1.29h2c.55 0 1.05-.22 1.41-.59.37-.36.59-.86.59-1.41z" fill="#656d78"/></g><g><path d="m11 44.62v2.38l-2.45.49-1.12.22c-1.01.2-1.94.59-2.76 1.13v-.01c-1.06-1.69-1.67-3.69-1.67-5.83v-8c0 1.1.89 2 2 2h2v1.29c0 2.27 1.28 4.35 3.32 5.37l.13.06c.34.17.55.52.55.9z" fill="#656d78"/></g><g><path d="m23 33h-2c-1.28 0-2.54-.26-3.7-.74s-2.22-1.18-3.13-2.09l-.17-.17-.17.17c-1.81 1.81-4.27 2.83-6.83 2.83h-2c-.56 0-1.06.22-1.42.59-.36.36-.58.86-.58 1.41v-3c0-3.04 1.23-5.79 3.22-7.78s4.74-3.22 7.78-3.22c6.08 0 11 4.92 11 11v3c0-1.1-.9-2-2-2z" fill="#656d78"/></g><g><path d="m15 55 2 6h-6l2-6z" fill="#ffeaa7"/></g><g><path d="m16.18 52.64-1.18 2.36h-2l-1.18-2.36 2.18-1.64z" fill="#fcd770"/></g><g><path d="m27 55.56v5.44h-10l-2-6 1.18-2.36 1.82 1.36 1.45-6.51 1.12.22c1.01.2 1.94.59 2.76 1.13 2.23 1.43 3.67 3.94 3.67 6.72z" fill="#ff826e"/></g><g><path d="m10 54 1.82-1.36 1.18 2.36-2 6h-10v-5.44c0-2.78 1.44-5.29 3.67-6.72.82-.54 1.75-.93 2.76-1.13l1.12-.22z" fill="#ff826e"/></g><g><path d="m19.45 47.49-1.45 6.51-1.82-1.36-2.18-1.64 3-4z" fill="#fc6e51"/></g><g><path d="m11 47 3 4-2.18 1.64-1.82 1.36-1.45-6.51z" fill="#fc6e51"/></g><g><path d="m57.76 33.15c.72.3 1.24 1.02 1.24 1.85 0 .55-.22 1.05-.59 1.41-.36.37-.86.59-1.41.59h-2v-4h2c.27 0 .52.05.76.15z" fill="#f0d0b4"/></g><g><path d="m55 37v1.29c0 2.27-1.28 4.35-3.32 5.37l-.13.06c-.34.17-.55.52-.55.9v2.38l-3 3-3-3v-2.38c0-.38-.21-.73-.55-.9l-.13-.06c-2.04-1.02-3.32-3.1-3.32-5.37v-1.29-4-.38c0-.9.72-1.62 1.62-1.62h.38l.55-1.11c.28-.54.84-.89 1.45-.89s1.17.35 1.45.89c.47.95 1.2 1.73 2.07 2.27s1.88.84 2.95.84h3.53z" fill="#f0d0b4"/></g><g><path d="m41 33v4h-2c-1.11 0-2-.9-2-2 0-.55.22-1.05.58-1.41.17-.17.37-.32.6-.41.25-.12.52-.18.82-.18z" fill="#f0d0b4"/></g><g><path d="m23 33c1.1 0 2 .9 2 2 0 .55-.22 1.05-.59 1.41-.36.37-.86.59-1.41.59h-2v-4z" fill="#f0d0b4"/></g><g><path d="m21 37v1.29c0 2.27-1.28 4.35-3.32 5.37l-.13.06c-.34.17-.55.52-.55.9v2.38l-3 4-3-4v-2.38c0-.38-.21-.73-.55-.9l-.13-.06c-2.04-1.02-3.32-3.1-3.32-5.37v-1.29-4c2.56 0 5.02-1.02 6.83-2.83l.17-.17.17.17c.91.91 1.97 1.61 3.13 2.09s2.42.74 3.7.74z" fill="#f0d0b4"/></g><g><path d="m7 33v4h-2c-1.11 0-2-.9-2-2 0-.55.22-1.05.58-1.41.36-.37.86-.59 1.42-.59z" fill="#f0d0b4"/></g><g><path d="m49 1h12v16h-12z" fill="#e6e9ed"/></g><g><path d="m1 1h12v16h-12z" fill="#e6e9ed"/></g><g><path d="m39 7v4l-1.48.54c-.04.09-.07.19-.11.28l.66 1.42-2.83 2.83-1.42-.66c-.09.04-.19.07-.28.11l-.54 1.48h-4l-.54-1.48c-.09-.04-.19-.07-.28-.11l-1.42.66-2.83-2.83.66-1.42c-.04-.09-.07-.19-.11-.28l-1.48-.54v-4l1.48-.54c.04-.09.07-.19.11-.28l-.66-1.42 2.83-2.83 1.42.66c.09-.04.19-.07.28-.11l.54-1.48h4l.54 1.48c.09.04.19.07.28.11l1.42-.66 2.83 2.83-.66 1.42c.04.09.07.19.11.28zm-4 2c0-2.21-1.79-4-4-4s-4 1.79-4 4 1.79 4 4 4 4-1.79 4-4z" fill="#fcd770"/></g></g><g><path d="m12.509 38.333-1.49 1.334c.757.847 1.844 1.333 2.981 1.333s2.224-.486 2.981-1.334l-1.492-1.332c-.756.846-2.222.847-2.98-.001z"/><path d="m24.635 48.558c.894-1.708 1.365-3.611 1.365-5.558v-11c0-6.617-5.383-12-12-12s-12 5.383-12 12v2.99c0 .003-.001.006-.001.01s.001.006.001.01v7.99c0 1.946.471 3.849 1.365 5.558-2.065 1.668-3.366 4.211-3.365 7.001v6.441h28v-6.441c0-2.79-1.3-5.333-3.365-7.001zm-3.869-1.825-2.768-.554-.002-1.561.135-.066c2.387-1.194 3.869-3.593 3.869-6.261v-.291h.999c.353 0 .686-.072 1.001-.185v5.185c0 1.563-.382 3.084-1.073 4.465-.676-.329-1.399-.579-2.161-.732zm-3.527-3.97-.134.066c-.683.34-1.106 1.025-1.106 1.789v2.05l-1.999 2.665-2-2.667-.001-2.049c0-.764-.424-1.449-1.103-1.788l-.133-.066c-1.704-.851-2.763-2.565-2.763-4.471v-4.338c2.228-.206 4.312-1.1 6-2.575 1.689 1.477 3.771 2.369 5.999 2.575l.001 4.337c0 1.906-1.059 3.62-2.761 4.472zm-6.661 5.341 2.022 2.696-1.96 1.471-.889-4.001zm3.142 7.896h.559l1.333 4h-3.226zm.662-2h-.764l-.532-1.064.914-.686.914.685zm1.018-3.2 2.021-2.695.828.165-.889 4.001zm6.599-16.8h1c.552 0 1 .448 1 1s-.448 1-1 1h-.999zm-7.999-12c5.514 0 10 4.486 10 10v.185c-.315-.113-.648-.185-1.001-.185h-1-1c-2.312 0-4.485-.9-6.12-2.535l-.877-.877-.882.877c-1.635 1.635-3.808 2.535-6.12 2.535h-.001-.999-1.001c-.352 0-.685.072-.999.184v-.184c0-5.514 4.486-10 10-10zm-8 14h-1.001c-.55 0-.996-.446-.999-.995v-.01c.003-.549.449-.995.999-.995h1.001zm-2 7v-5.184c.314.112.647.184.999.184h1.001v.292c0 2.669 1.482 5.068 3.866 6.26l.133.066.001 1.563-2.766.553c-.763.153-1.486.403-2.161.731-.691-1.382-1.073-2.903-1.073-4.465zm-2 12.559c-.001-3.325 2.365-6.212 5.627-6.864l.162-.032 1.572 7.068 2.099-1.574.461.922-1.641 4.921h-8.28zm24 4.441h-8.28l-1.641-4.923.461-.922 2.099 1.574 1.572-7.068.162.032c3.261.654 5.627 3.54 5.627 6.866z"/><path d="m50.981 39.666-1.492-1.332c-.756.848-2.224.846-2.979 0l-1.492 1.332c.757.848 1.844 1.334 2.982 1.334 1.137 0 2.224-.486 2.981-1.334z"/><path d="m54.766 46.733-2.768-.554-.002-1.561.135-.066c2.387-1.194 3.869-3.593 3.869-6.261v-.291h.999c1.654 0 3-1.346 3-3 0-.83-.339-1.582-.886-2.126.572-1.052.887-2.24.887-3.44 0-2.496-1.265-4.777-3.382-6.102l-3.328-2.08c-1.311-.819-2.82-1.252-4.366-1.252h-1.452c-2.942 0-5.607 1.533-7.086 4.037-2.468.304-4.386 2.414-4.386 4.963 0 1.346.315 2.663.891 3.869-.55.544-.892 1.298-.892 2.131 0 1.654 1.346 3 3 3h1.001v.292c0 2.669 1.482 5.068 3.866 6.26l.133.066.001 1.563-2.766.553c-4.192.839-7.235 4.55-7.235 8.825v6.441h28.001v-6.441c0-4.276-3.043-7.987-7.234-8.826zm-3.438 1.353.415.083-1.134 3.025-1.195-1.194zm5.671-12.086h-.999v-2h1c.552 0 1 .448 1 1s-.449 1-1.001 1zm-18.999-7c0-1.654 1.346-3 3-3h.618l.276-.553c1.063-2.126 3.2-3.447 5.577-3.447h1.452c1.171 0 2.313.328 3.306.947l3.328 2.08c1.53.957 2.443 2.604 2.443 4.407 0 .911-.257 1.808-.71 2.596-.097-.01-.191-.03-.291-.03h-1-1-3.527c-1.761 0-3.343-.979-4.13-2.554-.447-.891-1.345-1.446-2.342-1.446-.999 0-1.896.555-2.342 1.447l-.281.563c-1.122.103-2.033.92-2.294 1.989h-1.084c-.101 0-.197.02-.296.03-.453-.943-.703-1.974-.703-3.029zm.999 7c-.552 0-1-.448-1-1s.448-1 1-1h1.001v2zm3.001 2.292v-5.674c0-.341.277-.618.617-.618h1.001l.829-1.659c.21-.415.896-.416 1.105.001 1.129 2.257 3.396 3.658 5.92 3.658h2.527l.001 4.291c0 1.906-1.059 3.62-2.761 4.472l-.134.066c-.683.34-1.106 1.025-1.106 1.789v1.969l-1.999 1.999-2-2-.001-1.967c0-.764-.424-1.449-1.103-1.788l-.133-.066c-1.704-.853-2.763-2.567-2.763-4.473zm2.671 9.793 1.915 1.915-1.195 1.195-1.135-3.027zm15.329 11.915h-24.001v-4.441c0-3.325 2.367-6.212 5.628-6.864l.641-.128 2.341 6.239 3.391-3.392 3.391 3.391 2.34-6.24.642.128c3.261.654 5.627 3.54 5.627 6.866z"/><path d="m22.726 13.454 3.82 3.82 1.273-.596.48 1.322h5.402l.479-1.321 1.273.596 3.82-3.82-.596-1.273 1.323-.481v-5.402l-1.321-.479.596-1.273-3.82-3.82-1.273.596-.481-1.323h-5.402l-.479 1.321-1.273-.596-3.82 3.82.596 1.273-1.323.481v5.402l1.321.479zm1.274-5.753.823-.3.442-.202.427-1.031-.56-1.198 1.838-1.838 1.198.561 1.08-.446.453-1.247h2.598l.3.823.202.442 1.031.427 1.198-.561 1.838 1.838-.561 1.198.446 1.08 1.247.454v2.598l-.823.3-.442.202-.427 1.031.561 1.198-1.838 1.838-1.198-.561-1.08.446-.454 1.247h-2.598l-.3-.823-.202-.442-1.031-.427-1.198.561-1.838-1.838.561-1.198-.446-1.08-1.247-.454z"/><path d="m31 14c2.757 0 5-2.243 5-5s-2.243-5-5-5-5 2.243-5 5 2.243 5 5 5zm0-8c1.654 0 3 1.346 3 3s-1.346 3-3 3-3-1.346-3-3 1.346-3 3-3z"/><path d="m14 0h-14v18h14zm-2 16h-10v-14h10z"/><path d="m16 8h4v2h-4z"/><path d="m4 4h6v2h-6z"/><path d="m4 8h6v2h-6z"/><path d="m4 12h6v2h-6z"/><path d="m48 0v18h14v-18zm12 16h-10v-14h10z"/><path d="m42 8h4v2h-4z"/><path d="m52 4h6v2h-6z"/><path d="m52 8h6v2h-6z"/><path d="m52 12h6v2h-6z"/><path d="m26.555 24.832 1.445-.964v21.132h2v-24.868l-4.555 3.036z"/><path d="m35.293 40.293-1.293 1.293v-19.586h-2v24.414l4.707-4.707z"/></g></g></svg>